<?xml version="1.0" encoding="iso-8859-1"?>
<!-- Uploaded to: SVG Repo, www.svgrepo.com, Generator: SVG Repo Mixer Tools -->
<svg version="1.1" id="Layer_1" xmlns="http://www.w3.org/2000/svg" xmlns:xlink="http://www.w3.org/1999/xlink" 
	 viewBox="0 0 512.001 512.001" xml:space="preserve">
<path style="fill:#C4CFE3;" d="M382.697,183.532c65.411,0,118.446,53.035,118.446,118.457c0,65.411-53.035,118.446-118.446,118.446
	c-33.634,0-63.989-14.016-85.55-36.522h-82.293c-21.561,22.506-51.917,36.522-85.55,36.522
	c-65.411,0-118.446-53.035-118.446-118.446c0-65.422,53.035-118.457,118.446-118.457H382.697z M452.299,301.989
	c0-38.443-31.169-69.613-69.602-69.613c-38.443,0-69.613,31.169-69.613,69.613c0,38.433,31.169,69.602,69.613,69.602
	C421.13,371.591,452.299,340.422,452.299,301.989z M198.916,301.989c0-38.443-31.169-69.613-69.613-69.613
	c-38.433,0-69.602,31.169-69.602,69.613c0,38.433,31.169,69.602,69.602,69.602C167.746,371.591,198.916,340.422,198.916,301.989z"/>
<g>
	<path style="fill:#9DA6BA;" d="M382.697,232.376c38.433,0,69.602,31.169,69.602,69.613c0,38.433-31.169,69.602-69.602,69.602
		c-38.443,0-69.613-31.169-69.613-69.602C313.084,263.546,344.254,232.376,382.697,232.376z M419.089,301.989
		c0-6.004-4.853-10.857-10.857-10.857c-5.993,0-10.857,4.853-10.857,10.857c0,5.993,4.864,10.857,10.857,10.857
		C414.236,312.846,419.089,307.982,419.089,301.989z M393.554,276.444c0-6.004-4.864-10.857-10.857-10.857
		c-6.004,0-10.857,4.853-10.857,10.857c0,5.993,4.853,10.857,10.857,10.857C388.69,287.3,393.554,282.436,393.554,276.444z
		 M393.554,327.524c0-5.993-4.864-10.857-10.857-10.857c-6.004,0-10.857,4.864-10.857,10.857c0,6.004,4.853,10.857,10.857,10.857
		C388.69,338.381,393.554,333.528,393.554,327.524z M368.008,301.989c0-6.004-4.864-10.857-10.857-10.857
		c-6.004,0-10.857,4.853-10.857,10.857c0,5.993,4.853,10.857,10.857,10.857C363.144,312.846,368.008,307.982,368.008,301.989z"/>
	<rect x="229.401" y="144.893" style="fill:#9DA6BA;" width="53.198" height="36.652"/>
	<path style="fill:#9DA6BA;" d="M129.303,232.376c38.443,0,69.613,31.169,69.613,69.613c0,38.433-31.169,69.602-69.613,69.602
		c-38.433,0-69.602-31.169-69.602-69.602C59.701,263.546,90.87,232.376,129.303,232.376z"/>
</g>
<path d="M408.232,312.846c6.004,0,10.857-4.864,10.857-10.857c0-6.004-4.853-10.857-10.857-10.857
	c-5.993,0-10.857,4.853-10.857,10.857C397.375,307.982,402.239,312.846,408.232,312.846z"/>
<path d="M382.697,287.3c5.993,0,10.857-4.864,10.857-10.857c0-6.004-4.864-10.857-10.857-10.857
	c-6.004,0-10.857,4.853-10.857,10.857C371.841,282.436,376.693,287.3,382.697,287.3z"/>
<path d="M382.697,338.381c5.993,0,10.857-4.853,10.857-10.857c0-5.993-4.864-10.857-10.857-10.857
	c-6.004,0-10.857,4.864-10.857,10.857C371.841,333.528,376.693,338.381,382.697,338.381z"/>
<path d="M357.151,312.846c5.993,0,10.857-4.864,10.857-10.857c0-6.004-4.864-10.857-10.857-10.857
	c-6.004,0-10.857,4.853-10.857,10.857C346.295,307.982,351.148,312.846,357.151,312.846z"/>
<path d="M118.446,276.444v14.689h-14.678c-5.996,0-10.857,4.861-10.857,10.857c0,5.995,4.861,10.857,10.857,10.857h14.678v14.678
	c0,5.996,4.861,10.857,10.857,10.857c5.996,0,10.857-4.861,10.857-10.857v-14.678h14.689c5.996,0,10.857-4.862,10.857-10.857
	c0-5.996-4.861-10.857-10.857-10.857h-14.689v-14.689c0-5.996-4.861-10.857-10.857-10.857
	C123.307,265.587,118.446,270.447,118.446,276.444z"/>
<path d="M224.831,288.961v26.045c0,5.996,4.861,10.857,10.857,10.857c5.996,0,10.857-4.861,10.857-10.857v-26.045
	c0-5.996-4.861-10.857-10.857-10.857C229.691,278.105,224.831,282.965,224.831,288.961z"/>
<path d="M265.456,288.961v26.045c0,5.996,4.861,10.857,10.857,10.857s10.857-4.861,10.857-10.857v-26.045
	c0-5.996-4.861-10.857-10.857-10.857C270.317,278.105,265.456,282.965,265.456,288.961z"/>
<path d="M48.844,301.989c0,44.365,36.094,80.458,80.459,80.458c44.371,0,80.47-36.093,80.47-80.458
	c0-44.371-36.098-80.47-80.47-80.47C84.937,221.52,48.844,257.618,48.844,301.989z M188.059,301.989
	c0,32.392-26.358,58.744-58.756,58.744c-32.392,0-58.745-26.352-58.745-58.744c0-32.398,26.352-58.756,58.745-58.756
	C161.7,243.233,188.059,269.591,188.059,301.989z"/>
<path d="M302.228,301.989c0,44.365,36.098,80.458,80.47,80.458c44.365,0,80.459-36.093,80.459-80.458
	c0-44.371-36.094-80.47-80.459-80.47C338.326,221.52,302.228,257.618,302.228,301.989z M382.697,243.233
	c32.392,0,58.745,26.358,58.745,58.756c0,32.392-26.352,58.744-58.745,58.744c-32.398,0-58.756-26.352-58.756-58.744
	C323.941,269.591,350.299,243.233,382.697,243.233z"/>
<path d="M332.268,194.389h3.8c5.996,0,10.857-4.861,10.857-10.857c0-5.996-4.861-10.857-10.857-10.857h-3.8
	c-5.996,0-10.857,4.861-10.857,10.857C321.411,189.528,326.272,194.389,332.268,194.389z"/>
<path d="M129.303,431.292c34.018,0,65.818-12.932,90.07-36.522h73.255c24.251,23.589,56.051,36.522,90.07,36.522
	c71.298,0,129.303-58.005,129.303-129.303c0-71.304-58.005-129.314-129.303-129.314h-14.689c-5.996,0-10.857,4.861-10.857,10.857
	c0,5.995,4.861,10.857,10.857,10.857h14.689c59.325,0,107.589,48.27,107.589,107.6c0,59.325-48.264,107.589-107.589,107.589
	c-29.617,0-57.216-11.783-77.711-33.176c-2.048-2.138-4.88-3.346-7.84-3.346h-82.293c-2.961,0-5.792,1.208-7.84,3.346
	c-20.495,21.393-48.094,33.176-77.711,33.176c-59.325,0-107.589-48.264-107.589-107.589c0-59.331,48.264-107.6,107.589-107.6h167.41
	c5.996,0,10.857-4.862,10.857-10.857c0-5.996-4.861-10.857-10.857-10.857h-3.257v-27.782c0-5.996-4.861-10.857-10.857-10.857
	h-15.742V91.566c0-5.996-4.861-10.857-10.857-10.857s-10.857,4.861-10.857,10.857v42.471h-15.742
	c-5.996,0-10.857,4.861-10.857,10.857v27.782h-89.242C58.005,172.676,0,230.685,0,301.989C0,373.287,58.005,431.292,129.303,431.292
	z M240.258,155.75h31.484v14.939h-31.484V155.75z"/>
</svg>